# xmcd
# 
# Track frame offsets:
#     150
#     16665
#     34721
#     50999
# 
# Disc length: 907
# 
# Revision: 0
# Processed by: cddbd v1.5.2PL0 Copyright (c) Steve Scherf et al.
# Submitted via: BonkEnc v1.0.8
# 
DISCID=2a038904
DTITLE=JAMProject - 25
DYEAR=2002
DGENRE=Anime
TTITLE0=1
TTITLE1=2
TTITLE2=3
TTITLE3=4
EXTD=YEAR: 2002
EXTT0=
EXTT1=
EXTT2=
EXTT3=
PLAYORDER=
